<?xml version="1.0" standalone="no"?>
<!DOCTYPE svg PUBLIC "-//W3C//DTD SVG 20010904//EN"
 "http://www.w3.org/TR/2001/REC-SVG-20010904/DTD/svg10.dtd">
<svg version="1.0" xmlns="http://www.w3.org/2000/svg"
 width="512.000000pt" height="512.000000pt" viewBox="0 0 512.000000 512.000000"
 preserveAspectRatio="xMidYMid meet">
<rect width="100%" height="100%" fill="lightblue" />
<g transform="translate(0.000000,512.000000) scale(0.100000,-0.100000)"
fill="#000000" stroke="none">
<path d="M1675 5113 c-156 -12 -358 -61 -518 -124 -419 -166 -779 -499 -975
-901 -183 -375 -228 -819 -126 -1229 155 -625 618 -1118 1238 -1320 192 -63
268 -73 531 -74 258 0 362 15 560 80 212 69 477 215 607 333 14 13 31 23 37
21 5 -2 103 -96 216 -208 l207 -205 -24 -40 c-32 -57 -33 -189 -1 -258 17 -37
141 -168 561 -588 616 -616 589 -595 742 -594 64 0 100 6 143 23 81 32 168
114 209 199 30 61 33 74 33 162 0 157 25 126 -597 747 -540 539 -543 542 -602
558 -74 22 -173 16 -238 -13 l-46 -20 -204 204 c-111 113 -204 209 -206 214
-2 6 16 34 41 62 201 239 350 588 387 909 20 166 8 455 -24 598 -116 521 -409
934 -857 1207 -325 199 -708 289 -1094 257z m465 -273 c490 -100 904 -423
1120 -874 216 -452 211 -951 -16 -1397 -229 -449 -674 -770 -1171 -844 -141
-21 -359 -21 -493 0 -199 32 -449 130 -615 241 -328 220 -574 559 -666 917
-64 252 -71 487 -20 730 29 140 63 236 136 382 151 303 392 545 701 701 173
88 346 141 534 164 122 15 370 5 490 -20z m2212 -3888 c585 -584 555 -547 502
-629 -34 -51 -71 -73 -125 -73 l-44 0 -522 522 c-422 422 -523 528 -523 549 0
34 127 159 161 159 18 0 155 -131 551 -528z"/>
<path d="M1680 4564 c-201 -37 -291 -65 -425 -132 -204 -101 -361 -240 -490
-433 -148 -220 -223 -488 -212 -758 6 -169 26 -264 84 -410 75 -189 163 -320
310 -462 173 -166 354 -265 602 -327 94 -23 126 -26 286 -26 139 -1 199 3 263
17 347 76 630 272 821 567 143 219 210 474 198 745 -10 200 -42 327 -132 510
-170 349 -470 588 -860 687 -61 15 -121 21 -250 23 -93 2 -181 1 -195 -1z
m257 -306 c66 -64 155 -230 135 -250 -8 -8 -67 -14 -177 -16 -194 -5 -294 3
-302 24 -9 23 62 157 114 215 98 108 143 113 230 27z m-561 -103 c-17 -41 -37
-75 -43 -75 -15 0 -103 42 -103 50 0 9 155 99 171 100 4 0 -7 -34 -25 -75z
m1027 -3 l38 -25 -57 -24 c-31 -13 -57 -23 -59 -21 -4 4 -65 140 -65 145 0 6
100 -47 143 -75z m-1256 -259 c56 -28 108 -53 114 -55 10 -3 8 -26 -5 -94 -10
-49 -24 -141 -30 -204 l-11 -115 -203 -3 -202 -2 0 23 c0 43 42 191 76 265 37
82 141 245 152 240 4 -2 53 -27 109 -55z m1528 4 c82 -106 157 -287 180 -434
l7 -43 -206 0 -206 0 0 38 c0 34 -32 284 -46 358 -6 31 -5 31 73 63 43 18 94
41 113 51 19 11 37 19 40 19 3 0 23 -23 45 -52z m-977 -148 c99 -10 148 -10
260 0 220 21 194 31 214 -74 9 -49 20 -127 24 -172 l7 -83 -366 0 c-201 0
-368 3 -370 8 -6 10 10 150 29 255 l16 89 32 -6 c17 -3 86 -11 154 -17z m-484
-601 c3 -18 10 -74 17 -125 6 -51 19 -131 29 -179 l18 -87 -52 -21 c-28 -11
-85 -38 -126 -59 l-75 -39 -32 39 c-77 90 -166 305 -187 456 l-7 47 205 0 205
0 5 -32z m992 -50 c-7 -83 -34 -256 -41 -269 -3 -3 -39 0 -82 8 -109 21 -355
20 -468 0 -49 -9 -93 -13 -98 -8 -8 8 -40 196 -51 299 l-5 52 376 0 376 0 -7
-82z m654 53 c0 -49 -49 -219 -85 -298 -37 -80 -123 -216 -134 -211 -3 2 -37
19 -76 39 -38 20 -91 44 -118 54 -35 13 -46 22 -43 34 14 47 37 209 42 304 l7
107 204 0 203 0 0 -29z m-817 -557 c26 -4 47 -11 47 -16 0 -19 -73 -155 -116
-215 -76 -106 -143 -129 -209 -71 -46 40 -108 130 -147 215 -36 77 -35 79 62
88 36 3 72 8 80 10 20 5 223 -3 283 -11z m-662 -169 c20 -47 34 -85 31 -85
-13 0 -165 86 -179 102 -15 17 -13 19 38 42 30 14 59 25 64 25 6 1 26 -37 46
-84z m1018 56 l54 -28 -44 -30 c-54 -37 -152 -88 -148 -76 25 61 74 163 78
163 3 -1 30 -14 60 -29z"/>
</g>
</svg>
